<svg xmlns="http://www.w3.org/2000/svg" viewBox="0 0 751.3 580.91"><defs><style>.cls-1{fill:#f2f7fd;}.cls-2{fill:#bdd4fd;}.cls-3{fill:#fe8052;}.cls-4{fill:#fdbf81;stroke:#fdb380;}.cls-11,.cls-13,.cls-23,.cls-27,.cls-32,.cls-36,.cls-4,.cls-40{stroke-miterlimit:10;}.cls-5{fill:#ffbf7f;}.cls-6{fill:#6797fe;}.cls-7{fill:#6796ff;}.cls-8{fill:#93b3f5;}.cls-9{fill:#2321b2;}.cls-10{fill:#3075ed;}.cls-11,.cls-31{fill:#2f73ee;}.cls-11{stroke:#6a96fd;stroke-width:6px;}.cls-12{fill:#fcdfbb;}.cls-13,.cls-23,.cls-27,.cls-32,.cls-36,.cls-40{fill:none;}.cls-13{stroke:#f0c8a7;}.cls-14{fill:#f9e7c2;}.cls-15{fill:#fcdeb7;}.cls-16{fill:#f98162;}.cls-17{fill:#fea875;}.cls-18{fill:#41305d;}.cls-19{fill:#fec180;}.cls-20{fill:#fce0be;}.cls-21{fill:#e7b289;}.cls-22{fill:#eab386;}.cls-23{stroke:#d9a57e;}.cls-24{fill:#ffdebb;}.cls-25{fill:#0b0d55;}.cls-26{fill:#43315d;}.cls-27{stroke:#deb796;}.cls-28{fill:#fffefd;}.cls-29{fill:#fd856d;}.cls-30{fill:#ffa874;}.cls-32{stroke:#ebc3a0;}.cls-33{fill:#e6b98f;}.cls-34{fill:#fee0bb;}.cls-35{fill:#12125a;}.cls-36{stroke:#ddb796;}.cls-37{fill:#05075c;}.cls-38{fill:#feffff;}.cls-39{fill:#ecbc8e;}.cls-40{stroke:#d6a784;}.cls-41{fill:#ffa976;}.cls-42{fill:#ec6b5a;}.cls-43{fill:#ff876d;}.cls-44{fill:#e9b386;}.cls-45{fill:#35294d;}</style></defs><g id="Layer_2" data-name="Layer 2"><g id="Макет_сайти" data-name="Макет сайти"><ellipse class="cls-1" cx="375.65" cy="457.65" rx="375.65" ry="123.26"/><ellipse class="cls-2" cx="144.78" cy="462.21" rx="104.87" ry="26.09"/><ellipse class="cls-2" cx="590.42" cy="457.65" rx="111.58" ry="27.76"/><ellipse class="cls-2" cx="486.13" cy="405.47" rx="60.39" ry="7.44"/><ellipse class="cls-2" cx="410.61" cy="437.56" rx="37.04" ry="3.26"/><ellipse class="cls-2" cx="200.35" cy="412.91" rx="37.04" ry="3.26"/><g id="ЧемМы_Занимаемся" data-name="ЧемМы Занимаемся"><g id="МОнетка"><circle class="cls-3" cx="401.96" cy="397.73" r="23.23"/><path class="cls-4" d="M402.3,367.42A30.66,30.66,0,1,0,433,398.07,30.65,30.65,0,0,0,402.3,367.42Zm0,51.44a21.58,21.58,0,1,1,21.58-21.58A21.58,21.58,0,0,1,402.3,418.86Z"/><path class="cls-5" d="M398.67,402.23a4.2,4.2,0,0,0,4.44,3.36c2.95,0,3.9-1.42,3.9-3,0-2-1-2.92-4.74-4-6.75-2-8.72-4.44-8.72-8.19,0-4.84,4.22-7.5,9-7.5,6.87,0,9.15,3.53,9.49,7.11h-5.67c-.28-1.11-.8-2.91-3.86-2.91-2.56,0-3.29,1.51-3.29,2.75,0,1.74.94,2.53,5.22,3.73,6,1.66,8.21,4.07,8.21,8.33,0,5.31-4.06,7.87-9.77,7.86-6.06,0-9.55-3.08-9.91-7.55Zm1.63-17.62v-4.09h4.76v4.09Zm.29,28.21V407h4.78v5.79Z"/></g><g id="МОнетка-2" data-name="МОнетка"><circle class="cls-3" cx="375.06" cy="158.09" r="22.2"/><path class="cls-4" d="M375.39,129.13a29.29,29.29,0,1,0,29.28,29.29A29.29,29.29,0,0,0,375.39,129.13Zm0,49.14A20.62,20.62,0,1,1,396,157.66,20.62,20.62,0,0,1,375.39,178.27Z"/><path class="cls-5" d="M371.92,162.38a4,4,0,0,0,4.24,3.22c2.83,0,3.73-1.36,3.73-2.88,0-1.88-1-2.79-4.54-3.81-6.44-1.85-8.33-4.23-8.33-7.82,0-4.62,4-7.17,8.65-7.17,6.56,0,8.74,3.37,9.07,6.79h-5.42c-.28-1.06-.77-2.77-3.69-2.77-2.45,0-3.15,1.44-3.15,2.62,0,1.67.9,2.42,5,3.57,5.7,1.59,7.85,3.89,7.85,8,0,5.08-3.88,7.52-9.34,7.52-5.79,0-9.13-3-9.47-7.23Zm1.56-16.83v-3.91H378v3.91Zm.27,27V167h4.57v5.53Z"/></g><g id="денежка"><polygon class="cls-6" points="354.35 391.8 345.16 257.24 412.37 192.57 386.48 166.05 523.96 166.05 523.96 297.27 486.2 263.27 354.35 391.8"/><polygon class="cls-7" points="336.11 282.51 428.41 195.59 407.47 174.14 514.5 174.14 514.5 276.36 484.97 249.77 363.38 366.6 336.11 282.51"/><path class="cls-8" d="M512,176.64v94.1l-27.08-24.38L364.53,362,339,283.25l93-87.59-18.56-19H512m5-5H401.54l8.29,8.5,15,15.37-89.29,84.1-2.31,2.17,1,3,25.55,78.78,2.46,7.6,5.76-5.54L485,253.19l23.62,21.27L517,282V171.64Z"/><polygon class="cls-9" points="353.79 392.4 302.39 332.67 348.45 262.61 390.93 304.26 353.79 392.4"/><polygon class="cls-10" points="262.58 422.63 185.1 348.87 313.64 228.74 390.93 304.26 262.58 422.63"/><polyline class="cls-11" points="381.72 295.04 262.22 404.67 205.26 350.57 322.73 237.51"/><circle class="cls-7" cx="317.51" cy="296.42" r="24.62"/></g><g id="МОнетка-3" data-name="МОнетка"><circle class="cls-3" cx="449.8" cy="313.94" r="36.41"/><path class="cls-4" d="M450.35,266.44a48,48,0,1,0,48,48.05A48,48,0,0,0,450.35,266.44Zm0,80.62a33.82,33.82,0,1,1,33.82-33.82A33.82,33.82,0,0,1,450.35,347.06Z"/><path class="cls-5" d="M444.66,321c.72,3.23,3.21,5.27,6.95,5.27,4.64,0,6.12-2.23,6.12-4.73,0-3.07-1.63-4.58-7.44-6.24-10.58-3-13.67-6.95-13.67-12.83,0-7.59,6.63-11.76,14.18-11.76,10.77,0,14.35,5.53,14.88,11.14h-8.89c-.45-1.74-1.26-4.55-6.05-4.55-4,0-5.17,2.37-5.17,4.3,0,2.74,1.49,4,8.19,5.85,9.36,2.61,12.87,6.39,12.87,13.06,0,8.33-6.36,12.34-15.31,12.33-9.5,0-15-4.83-15.54-11.84Zm2.56-27.62V287h7.44v6.41Zm.44,44.22v-9.07h7.5v9.07Z"/></g><g id="МОнетка-4" data-name="МОнетка"><circle class="cls-3" cx="510.89" cy="342.92" r="27.17"/><path class="cls-4" d="M511.29,307.47a35.86,35.86,0,1,0,35.85,35.86A35.86,35.86,0,0,0,511.29,307.47Zm0,60.17a25.24,25.24,0,1,1,25.24-25.24A25.24,25.24,0,0,1,511.29,367.64Z"/><path class="cls-5" d="M507.05,348.19a4.9,4.9,0,0,0,5.19,3.93c3.45,0,4.56-1.66,4.56-3.53,0-2.29-1.22-3.42-5.55-4.65-7.9-2.27-10.2-5.19-10.2-9.58,0-5.66,4.94-8.78,10.58-8.78,8,0,10.71,4.13,11.1,8.32H516.1c-.34-1.3-.94-3.4-4.52-3.4-3,0-3.85,1.77-3.85,3.21,0,2.05,1.11,3,6.1,4.37,7,1.95,9.61,4.77,9.61,9.75,0,6.21-4.75,9.2-11.43,9.19-7.08,0-11.17-3.6-11.59-8.83Zm1.9-20.61v-4.79h5.56v4.79Zm.33,33V353.8h5.6v6.77Z"/></g><g id="чел_с_папкой" data-name="чел с папкой"><path class="cls-12" d="M160.72,136s21.91,35.34,30.78,20.47,13.44-51.78,11.74-56.86c0,0,15.52-3.14,16.83-21.4l-5.71,4.93,5.25-9.43L213,79.94l3.13-8.41-14.35,13.6-.88-9.23s-7.89,6.2-4.95,22.63L184,126.31l-6.26-7.23Z"/><path class="cls-13" d="M183.89,126s-6.79,10.31-4.44,17.48"/><polygon class="cls-14" points="114.85 442.81 104.48 442.81 101.55 430.58 115.73 430.58 114.85 442.81"/><polygon class="cls-15" points="149.56 442.97 126.88 440.66 135.39 424.32 150.56 425.22 149.56 442.97"/><path class="cls-16" d="M104.11,443.8c-2.26,4.68-6,17.74-10.31,19.69s-2.54,8.81,7.11,8.61,11.8-3.52,11.54-8.61,4.37-9.39,4.37-9.39,6.26-9.33-4.95-13.24C111.87,440.86,105.65,440.59,104.11,443.8Z"/><path class="cls-17" d="M103.67,440.13c-2.26,4.69-6,17.74-10.31,19.69s-2.54,8.81,7.11,8.61,11.8-3.52,11.54-8.61,4.37-9.39,4.37-9.39,6.26-9.32-4.95-13.24C111.43,437.19,105.21,436.92,103.67,440.13Z"/><path class="cls-16" d="M130.17,436.77s-.58,12.85,8.74,3.33c10.4-10.61,34.94,13.29,39.37,21.45,0,0-11.71,6.66-24,.46s-13.23-8.54-20-7.89S119.35,450.27,130.17,436.77Z"/><path class="cls-17" d="M130.43,433.12s-.58,12.85,8.74,3.32c10.4-10.61,32.87,14.16,37.31,22.31,0,0-9.65,5.8-21.91-.39s-13.24-8.55-20-7.89S119.61,446.62,130.43,433.12Z"/><path class="cls-18" d="M80.45,211.06s5.06,211.47,20.74,222.06H117s6.37-100.34,0-101.91l6.82-62.6,18.9,48.13s-19.57,97-8.22,108.78l16,2.74S175.53,314.78,173.19,307s-7.05-64.17-14.48-86.87Z"/><path class="cls-19" d="M78.08,189.25V219s47.48,11.22,85.83,0l-1.83-79,22.44-13.83S174.34,88,139.39,86.73l-13,5.22L106,86.73s-33.93,5-41.75,30.52L56.69,134l21.92,10.69Z"/><path class="cls-20" d="M133.06,72.63V77.8a18.29,18.29,0,0,1-11.34,3.52,18.6,18.6,0,0,1-10.89-3.18V73.7A14.15,14.15,0,0,1,116,70.82h13.36A15.54,15.54,0,0,1,133.06,72.63Z"/><path class="cls-20" d="M133.06,72.63V85.31a19,19,0,0,1-10.43,2.85c-4.88,0-9.2-1.55-11.8-3.91V73.7A14.15,14.15,0,0,1,116,70.82h13.36A15.54,15.54,0,0,1,133.06,72.63Z"/><path class="cls-20" d="M133.06,72.63V85.31a19,19,0,0,1-10.43,2.85c-4.88,0-9.2-1.55-11.8-3.91V73.7A14.15,14.15,0,0,1,116,70.82h13.36A15.54,15.54,0,0,1,133.06,72.63Z"/><path class="cls-21" d="M133.06,71.78V77a18.29,18.29,0,0,1-11.34,3.52,18.6,18.6,0,0,1-10.89-3.18V72.85A14.15,14.15,0,0,1,116,70h13.36A15.54,15.54,0,0,1,133.06,71.78Z"/><g id="чел"><path class="cls-22" d="M143.86,47.33s6.94-15.75,8.66-.93S137.3,58.77,137.3,58.77Z"/><path class="cls-23" d="M148.31,50.28s.34-3.33,2.25-3.67"/><path class="cls-22" d="M99.86,49.8S91.06,30,89.76,46.53s16.63,12,16.63,12Z"/><path class="cls-23" d="M91.77,44.86s3.84.26,2.34,6.72"/><path class="cls-18" d="M106,21.51a5.62,5.62,0,0,1-.55.64c0-.31,0-.61-.07-.91Z"/><path class="cls-18" d="M97.67,38.33a6.29,6.29,0,0,1-4,0,6.68,6.68,0,0,0,4,0Z"/><path class="cls-24" d="M148.19,40.32c0,20.61-11.75,37.31-26.25,37.31S95.69,60.93,95.69,40.32s10.64-25.07,25.14-25.07S148.19,19.72,148.19,40.32Z"/><ellipse class="cls-25" cx="110.53" cy="44.63" rx="2.38" ry="3.49"/><ellipse class="cls-25" cx="131.85" cy="43.81" rx="2.38" ry="3.49"/><rect class="cls-26" x="127.65" y="35.47" width="11.74" height="2.22" transform="translate(6.49 -18.46) rotate(8.1)"/><rect class="cls-26" x="103.91" y="35.62" width="11.74" height="2.22" transform="translate(-1.82 5.98) rotate(-3.09)"/><polyline class="cls-27" points="123.28 43.52 123.28 56.95 118.39 55.26"/><path class="cls-28" d="M113,62.6a4.73,4.73,0,0,0-.1.93c0,3.62,4.16,6.57,9.29,6.57s9.29-2.95,9.29-6.57a4.73,4.73,0,0,0-.1-.93Z"/><path class="cls-18" d="M152.81,27.74a6.51,6.51,0,0,1,.62,2.79,6.65,6.65,0,0,1-6.65,6.65,6.32,6.32,0,0,1-1.85-.27,19.61,19.61,0,0,1-3.13-10.79v-.47a6.37,6.37,0,0,1-.45-2A66.59,66.59,0,0,1,127.9,25a58.27,58.27,0,0,1-21.7-3.81l-.62-.27c0,.3,0,.6.07.91s0,.89,0,1.34c0,7-3,12.86-7.19,14.61a6.37,6.37,0,0,1-.61.23,6.68,6.68,0,0,1-4,0,6.37,6.37,0,0,1-.61-.23,6.53,6.53,0,0,1-.7-.35s0,0-.06,0l-.1-.06a2.64,2.64,0,0,1-.35-.23,6.62,6.62,0,0,1-2.85-5.45,6.54,6.54,0,0,1,1.4-4.07h0A6.5,6.5,0,0,1,90.14,25a6.63,6.63,0,0,1,4.29-6.21,6.41,6.41,0,0,1-.2-1.59,6.64,6.64,0,0,1,6.65-6.65l.48,0a6.34,6.34,0,0,1,1.9.43A6.49,6.49,0,0,1,103,9.3a6.65,6.65,0,0,1,12.59-3,6.64,6.64,0,0,1,13.28.36,2.61,2.61,0,0,1,0,.4A6.66,6.66,0,0,1,141.8,9.3a6.5,6.5,0,0,1-.29,1.94,6.63,6.63,0,0,1,7.8-.18,6.63,6.63,0,0,1,2.88,5.47,6.46,6.46,0,0,1-.15,1.4,6.45,6.45,0,0,1,1.36,1.4,6.6,6.6,0,0,1,1.23,3.86A6.52,6.52,0,0,1,152.81,27.74Z"/></g><circle class="cls-29" cx="126.36" cy="92.53" r="3.52"/><polygon class="cls-29" points="129.47 216.87 117.74 192.15 126.36 90.72 139.71 192.15 129.47 216.87"/><polygon class="cls-30" points="109.42 81.67 104.86 86.93 121.35 96.35 127.13 87.58 109.42 81.67"/><polygon class="cls-30" points="124.19 87.87 133.35 82.23 139.71 86.63 130.75 94.3 124.19 87.87"/><polygon class="cls-31" points="121.54 197.41 70.44 187.02 86.09 122.09 136.7 132.72 121.54 197.41"/><path class="cls-24" d="M57.57,134.36s-23.11,34,10.26,31.53c12.89-.95,51.65-2,51.65-2s11.35,4.7,14.28-8.8-16.14-1.57-16.14-1.57l-40.69-3,2-6.16Z"/><path class="cls-32" d="M63.79,149.47a23.69,23.69,0,0,1,13.3.59"/></g><g id="Тетка"><path class="cls-24" d="M537.59,312.77V414.51h16s21.72-72.39,16.44-100l-32.48-2.74Z"/><path class="cls-24" d="M617.22,422.73h16.63s5.87-95.28-7.43-113.28l-35.61,2.34S598.05,350.53,617.22,422.73Z"/><path class="cls-24" d="M548,130.54l-28.72,9.4-23.67,7-31.3-56.74L451.63,76l7.82,2.35-9.19-15.66L462.39,74l-6.85-18.09,11,11.44-2.35-14.09,8.22,16.24,6.84-6.85V85.54l23.87,37.37s49.5-25.23,58.31-22.79S548,130.54,548,130.54Z"/><path class="cls-24" d="M607.06,133.38l21.7,21L647,171.11l53-37.29,17.69-7.27-8.07-1.31,15.13-10-15.88,4.88,14.08-13.26-14.86,5.48,8.28-11.63-14.5,11-3.15-9.15-10,20.57-37.83,23.14s-33.44-44.38-42.42-46S607.06,133.38,607.06,133.38Z"/><path class="cls-24" d="M591.35,93.53l0,0v-.1A.16.16,0,0,1,591.35,93.53Z"/><path class="cls-24" d="M591.31,93.56v9.21c-3,6-11.42,10.89-21.76,11.81-.71.06-1.41.1-2.11.12a35,35,0,0,1-6.46-.33c2.95-3.34,4-7,5.35-10.52a25.48,25.48,0,0,0,1.11-9.56c2.76,1.32,7.71,2.93,11.39,2.93A21.3,21.3,0,0,0,591.31,93.56Z"/><path class="cls-24" d="M591.35,93.53l0,0v-.1A.16.16,0,0,1,591.35,93.53Z"/><path class="cls-33" d="M591.35,93.53l0,0v-.1A.16.16,0,0,1,591.35,93.53Z"/><path class="cls-33" d="M591.31,81.47V93.56a21.3,21.3,0,0,1-12.48,3.66A23,23,0,0,1,569,95.13a17.57,17.57,0,0,1-1.55-.84V81.47Z"/><path class="cls-33" d="M591.35,93.53l0,0v-.1A.16.16,0,0,1,591.35,93.53Z"/><ellipse class="cls-34" cx="574.27" cy="55.41" rx="24.62" ry="36.39"/><path class="cls-35" d="M556.8,51.07l10.32.18s0-1.21,0-2.06C559.83,48.82,556.8,51.07,556.8,51.07Z"/><path class="cls-35" d="M590.06,51.07l-10.31.18s0-1.21,0-2.06C587,48.82,590.06,51.07,590.06,51.07Z"/><path class="cls-36" d="M573.52,58s-3.11,8.11-3.62,9.71l4.37.46"/><ellipse class="cls-37" cx="562.08" cy="57.12" rx="1.81" ry="3.03"/><ellipse class="cls-37" cx="583.85" cy="57.12" rx="1.81" ry="3.03"/><path class="cls-38" d="M565,73.41a3.78,3.78,0,0,0-.22,1.25c0,3.12,3.87,5.65,8.63,5.65S582,77.78,582,74.66a3.78,3.78,0,0,0-.22-1.25Z"/><path class="cls-18" d="M614.39,54.59A29.88,29.88,0,0,1,606,75.46,30,30,0,0,1,597,86.91c-2.79,1.14-2.9,2.83-5.35,3.13-.82-2.71-1.34-5.68-.38-8.37,2.25-6.29,8.15-12.59,5.08-21.66-.73-2.16-.25-4.5-.74-6.63a28.44,28.44,0,0,0-1.43-4.59,25.31,25.31,0,0,0-1.08-2.37A30.06,30.06,0,0,1,579.53,35a15.24,15.24,0,0,0-1.48-.37,29.9,29.9,0,0,1-19.3,11.3,28.71,28.71,0,0,1-3.23.3q-.6,0-1.2,0h-.51c-.94,0-1.86-.07-2.77-.17a45.63,45.63,0,0,0-1.12,8c-.06,1.33-.07,2.69,0,4.06,0,1.17.13,2.32.25,3.45a45.43,45.43,0,0,0,.84,5.07,41.73,41.73,0,0,0,2.46,7.6c3.43,7.88,9,13.67,15.58,15.71q-1.32.12-2.67.12c-.54,0-1.08,0-1.62-.05a29.55,29.55,0,0,1-13.52-4,29.89,29.89,0,0,1-9.53-20c-.06-.68-.08-1.36-.08-2a29.6,29.6,0,0,1,.7-6.43,29.23,29.23,0,0,1-3.68-9.05,29.55,29.55,0,0,1-.74-6.63c0-.16,0-.33,0-.49A29.71,29.71,0,0,1,543,25.06a29.86,29.86,0,0,1,21.3-8.88h.05a30,30,0,0,1,10.42-1.86h.33a29.09,29.09,0,0,1,6.64.82,13.76,13.76,0,0,0,2.61.74,30.09,30.09,0,0,1,16.53,13.62,28.63,28.63,0,0,1,2.32,5.17A30.05,30.05,0,0,1,613.44,47.5a6.44,6.44,0,0,1,.24.61A29.38,29.38,0,0,1,614.39,54.59Z"/><path class="cls-39" d="M598.94,69s-2.23-15.12,4.33-15.8,4.06,11.39,3.18,13.25S598.94,69,598.94,69Z"/><path class="cls-40" d="M600.51,62.69s3.13-4.6,4.5-4.74"/><path class="cls-19" d="M602.42,200.94a81.22,81.22,0,0,1-25.78,3.92,77.37,77.37,0,0,1-25.78-3.92c-.45-.78-5.13-2.87-5.13-2.87l1.81-29.53.52-8.4.67-10.93a18.55,18.55,0,0,1-5.53-3.47A17.08,17.08,0,0,1,537.38,133a16.62,16.62,0,0,1,1.82-7.58h0a0,0,0,0,1,0,0l2.35-3.48,9.78-14.5,6.87-10.18,9.42.4-2.53,14.26-.11.67a22.51,22.51,0,0,1,4.44-.44c8.29,0,21.8-9.42,21.8-9.42s-.23,24.51.63,29.3c.38,2,3.67,7.87,4,10.39a20.76,20.76,0,0,1-.64,6.59A31.9,31.9,0,0,1,590,161.31c-.19,1-.34,2-.44,3a32.68,32.68,0,0,0-.19,3.59,33.28,33.28,0,0,0,4.31,16.57,29.12,29.12,0,0,0,5,6.5A32.21,32.21,0,0,1,602.42,200.94Z"/><path class="cls-41" d="M599.69,201.83s14.48-3,19.17-7l-10.3-20.48s-3.91-5.48-1.83-15.91l5.35-19.57s-13.3-23.48-1.17-38.87l-19.6.15s-12,21.63,2.77,40.42l-3.26,17.6s-6.13,16.44,1,24.27Z"/><path class="cls-42" d="M600.86,199l16.34-7.53s5.67,5.14,7.53,19.59c2.37,18.51,3.11,55.3,3.26,102l-21.33,1.57Z"/><path class="cls-43" d="M545.82,196.7s19.82,11.72,55.82,2.07c0,0,10.43,84.26,5.74,115.82,0,0-57.65,5-70.18,1.05C537.2,315.64,539.82,238.44,545.82,196.7Z"/><path class="cls-44" d="M549.07,74.67a11.91,11.91,0,0,1-3.81-9.1c.26-5.67.84-11.18,3.55-4.56Z"/><path class="cls-18" d="M616.06,421.49h18.79v22.83s9.39,39.13-7.44,36.39S618,447.58,618,447.58Z"/><polygon class="cls-45" points="557.54 426.61 558.45 441.06 552.26 445 544.85 444.02 544.07 434.14 557.47 426.45 557.54 426.61"/><path class="cls-18" d="M533.33,422l-13.18,20.74s-24.13,12.39-6.65,15,31.18-11.48,30.39-13.17,13.7-17.74,13.7-17.74.65-15.26-9.78-17.09S533.33,422,533.33,422Z"/></g><g id="МОнетка-5" data-name="МОнетка"><circle class="cls-3" cx="186.18" cy="357.37" r="22.9"/><path class="cls-4" d="M186.52,327.5a30.21,30.21,0,1,0,30.21,30.21A30.22,30.22,0,0,0,186.52,327.5Zm0,50.7a21.27,21.27,0,1,1,21.27-21.27A21.27,21.27,0,0,1,186.52,378.2Z"/><path class="cls-5" d="M182.94,361.81a4.15,4.15,0,0,0,4.38,3.31c2.91,0,3.84-1.4,3.84-3,0-1.93-1-2.88-4.68-3.92-6.65-1.92-8.59-4.37-8.59-8.08,0-4.76,4.17-7.39,8.92-7.39,6.77,0,9,3.48,9.36,7h-5.6c-.28-1.1-.79-2.87-3.8-2.87-2.53,0-3.25,1.49-3.25,2.71,0,1.72.93,2.49,5.14,3.68,5.89,1.64,8.1,4,8.1,8.21,0,5.24-4,7.76-9.63,7.76-6,0-9.42-3.05-9.77-7.45Zm1.61-17.37v-4h4.69v4Zm.28,27.81v-5.71h4.72v5.71Z"/></g></g></g></g></svg>