<svg xmlns="http://www.w3.org/2000/svg" viewBox="0 0 843.1 403.43"><defs><style>.cls-1{fill:#41305d;}.cls-2{fill:#ff8870;}.cls-3{fill:#3176ed;}.cls-4{fill:#6996fd;}.cls-5{fill:#fdaa74;}.cls-6{fill:#2825b0;}.cls-7{fill:#3075ef;}.cls-8{fill:#6796ff;}.cls-9{fill:#fdb07b;}.cls-10{fill:#fedcba;}.cls-11{fill:#ffc280;}.cls-12{fill:#fea978;}.cls-13{fill:#feddb9;}.cls-14{fill:#e7b286;}.cls-15{fill:#feddba;}.cls-16{fill:#1d2062;}.cls-17{fill:#4e3c64;}.cls-18,.cls-25,.cls-27{fill:none;stroke-miterlimit:10;}.cls-18{stroke:#e9c7a2;}.cls-19{fill:#fff;}.cls-20{fill:#fd9868;}.cls-21{fill:#cddefa;}.cls-22{fill:#93aff6;}.cls-23{fill:#bed6fc;}.cls-24{fill:#d3e1fc;}.cls-25{stroke:#bbdef8;stroke-width:4px;}.cls-25,.cls-27{stroke-linecap:round;}.cls-26{fill:#b8d6fd;}.cls-27{stroke:#8bb3f5;stroke-width:3px;}.cls-28{fill:#98b5f7;}</style></defs><g id="Layer_2" data-name="Layer 2"><g id="Layer_2-2" data-name="Layer 2"><path class="cls-1" d="M346.13,262.73s6-17,5.3-26.12-1.71-6.71-2.62-16.24,7.2-18,4.73-29.48-21.17-20.63-20.47-34.75,15.18-30.46,7.77-50.17-24.71-10.89-30.35-16.19S294.6,55.55,258.43,54.84,208.49,78,204.25,87.07s-4.59,42.24-14.12,49S157,139.9,150.25,154.73s8.82,27.65,1.41,42.23-38.27,24.82-35.55,43.18S131.9,280,157.66,283.9,346.13,262.73,346.13,262.73Z"/><path class="cls-2" d="M322.84,220.4s40.59,34.91,59.65,76.56,62.09,41.3,62.09,41.3l-88.31,4.82L327.07,315Z"/><path class="cls-3" d="M320.45,131c-14.92-16.44-44.82,13.53-26.47,30.47S337.87,150.14,320.45,131Z"/><path class="cls-4" d="M297.68,157.24c13.23,12.21,31.64-8.14,19.09-22-10.77-11.85-32.32,9.76-19.09,22"/><path class="cls-3" d="M228.25,131.08s-3.18-28.94,9.53-46.47c12.89-17.79,24.12-20.94,38.59-19.3s21.06,7.18,21.06,7.18-7.3-14.82-30.71-13.18S226.84,83.2,224.49,97s-1.75,30.59-1.75,30.59Z"/><path class="cls-3" d="M207.9,131c14.92-16.44,44.82,13.53,26.47,30.47S190.49,150.14,207.9,131Z"/><path class="cls-4" d="M230.67,157.24c-13.23,12.21-31.64-8.14-19.08-22,10.76-11.85,32.31,9.76,19.08,22"/><polygon class="cls-5" points="202.09 289.2 205.66 345.67 297.43 350.96 299.17 326.96 202.09 289.2"/><polygon class="cls-6" points="437.09 204.49 387.43 368.67 291.07 368.67 298.13 338.25 386.01 338.25 423.43 211.9 437.09 204.49"/><polygon class="cls-7" points="437.09 204.49 515.54 204.49 470.37 368.67 387.43 368.67 437.09 204.49"/><polygon class="cls-8" points="554.37 204.49 508.84 368.67 470.37 368.67 515.54 204.49 554.37 204.49"/><path class="cls-9" d="M823,363.2H20.12a20.12,20.12,0,1,0,0,40.23H823a20.12,20.12,0,1,0,0-40.23Z"/><path class="cls-10" d="M247.1,345.31s34.86-3.88,47.36-1.41,35.08,13.41,36.14,19.77-93.17,0-93.17,0Z"/><path class="cls-11" d="M234.84,203.08s-39.77,7.06-62.35,42.35-60.71,93.88-53.65,106.24,26.12,17.64,63.88,16.94,64.41-2.47,64.41-2.47-2.36-3.18,0-10.59A19.47,19.47,0,0,1,255,345l-83.19-16.59s22.59-16.59,27.88-33.17c0,0,7.62,19.76,21.46,27.53s45.42,15.53,77,15.53h32.48l.7-15.89s14.12,0,19.41-23.29-27.18-57.49-27.88-78.68C305.2,207.31,299.17,207,299.17,207Z"/><path class="cls-12" d="M241.13,203.08h-6.29s-3.41,33.18,29.06,34.59S299.17,207,299.17,207h-8.1Z"/><path class="cls-13" d="M247.13,178.61v23.76l-6,.71s-1.12,25.53,23,25.29S291.07,207,291.07,207l-5.88-1.18L285,174.37Z"/><path class="cls-14" d="M247.1,191.71a52.13,52.13,0,0,0,20.77,4,55.67,55.67,0,0,0,17.23-2.59l-.18-23.3L247.1,174Z"/><path class="cls-15" d="M293.54,93.67s14.55,26.11,13.24,44.47-14.12,49.76-30,52.23-35.12-3.53-41.82-27.53A109.54,109.54,0,0,1,232.13,118S268.13,115.9,293.54,93.67Z"/><circle class="cls-16" cx="252.78" cy="134.61" r="5.65"/><circle class="cls-16" cx="288.81" cy="134.61" r="5.65"/><path class="cls-17" d="M243.25,125.78c.37.88,6.68.36,11.72,0s8.75,1.59,8.93-2.47S251,120,248,121.37,242.72,124.55,243.25,125.78Z"/><path class="cls-17" d="M299.1,125.78c-.38.88-6.69.36-11.73,0s-8.74,1.59-8.92-2.47,12.88-3.35,15.88-1.94S299.63,124.55,299.1,125.78Z"/><polyline class="cls-18" points="269.85 136.02 275.54 152.43 269.85 152.43"/><path class="cls-19" d="M255,161.26h32s-1.86,13.23-16,13.23S255,161.26,255,161.26Z"/><path class="cls-20" d="M0,383.31a20.12,20.12,0,0,0,20.12,20.12H823A20.09,20.09,0,0,0,842.06,377H1A19.94,19.94,0,0,0,0,383.31Z"/><path class="cls-21" d="M599,319a17.12,17.12,0,1,0,17.12,17.12A17.11,17.11,0,0,0,599,319Zm0,28.68a11.56,11.56,0,1,1,11.56-11.56A11.56,11.56,0,0,1,599,347.7Z"/><path class="cls-22" d="M600.07,305.79v46.47a12,12,0,0,0,12,12H630.5a12,12,0,0,0,12-12V305.79Z"/><path class="cls-23" d="M611.44,352.2a12,12,0,0,0,12,12h8.28a12,12,0,0,0,10.78-11.94V305.79H611.44Z"/><path class="cls-24" d="M683.23,272.73s-13.23-31.18-9.17-36.82,6.62,11.39,11.47,7.24-13-30.39-6-37.61,8.1,12.28,13.35,8-13.52-39.1-3.32-47.1,5.44-.1,11.48-2.86-1.89-29.38,8.23-35.27,7.14,9.16,14.17,3.62,17.92-19.18,25.84-16.1,5.23,15.93,8.29,21.48,12.67.21,15,8-12.78,16.21-12.69,23.34,8.21,12.67,8.3,19.8-17.43,11.06-18.42,18.88,6,12.37,5.72,19.6-21.49,10-22,16.4,6.59,4.67,6.7,9.27-26.7,40.58-26.7,40.58Z"/><path class="cls-25" d="M698.81,272.45S723.7,148,743.42,119.13"/><line class="cls-25" x1="693.37" y1="169.96" x2="711.84" y2="208.91"/><polyline class="cls-25" points="748.92 225.5 702.56 247.6 683.58 211.29"/><line class="cls-25" x1="759.48" y1="190.39" x2="713.52" y2="207.42"/><polyline class="cls-25" points="763.87 150.61 721.18 175.05 709.36 133.49"/><path class="cls-26" d="M713.52,293.24s3.78-30.74-.26-34.16-2.81,9.65-7.16,7.47,4-24.9-2.5-29-3.73,10.58-8.4,8.4,2.8-31.44-6.23-35.48-4,.93-9,0-4-22.1-12.59-24.6-3.6,8.1-9.83,5.3-16.81-10.9-22.1-7.16-.93,12.76-2.18,17.43-9.34,2.49-9.65,8.72,12.45,9.65,13.7,14.94-3.74,10.89-2.49,16.18,14.94,5,17.12,10.59-2.18,10.27-.62,15.56,17.74,3.43,19.3,8.1-4,4.67-3.25,8.09,25,14.32,25,14.32Z"/><path class="cls-27" d="M701.67,290.69S660.3,203.14,640.38,185.4"/><line class="cls-27" x1="686.8" y1="213.8" x2="680.31" y2="246.05"/><polyline class="cls-27" points="655.91 265.17 694.31 272.99 701.67 242.6"/><line class="cls-27" x1="641.62" y1="241.12" x2="678.79" y2="245.25"/><polyline class="cls-27" points="631.04 212.48 667.15 222.7 668.24 189.75"/><polygon class="cls-28" points="664.79 290.69 729.54 290.69 719.49 363.39 671.24 363.39 664.79 290.69"/><path class="cls-8" d="M542.2,78.8H422c-5,0-26.46,16.17-29.82,12.91C388.64,88.3,403.3,65.36,403.3,60.1V18.7A18.75,18.75,0,0,1,422,0H542.2a18.75,18.75,0,0,1,18.69,18.7V60.1A18.75,18.75,0,0,1,542.2,78.8Z"/><rect class="cls-19" x="426.33" y="18.22" width="115.73" height="8.66" rx="3.29"/><rect class="cls-19" x="426.33" y="34.78" width="115.73" height="8.66" rx="3.29"/><rect class="cls-19" x="426.33" y="51.91" width="115.73" height="8.66" rx="3.29"/></g></g></svg>