<svg xmlns="http://www.w3.org/2000/svg" viewBox="0 0 779.16 462.31"><defs><style>.cls-1{fill:#bdd4fc;}.cls-19,.cls-2,.cls-22,.cls-24,.cls-29,.cls-36,.cls-39,.cls-4,.cls-41,.cls-45,.cls-46,.cls-48{fill:none;stroke-miterlimit:10;}.cls-2{stroke:#aed2f0;}.cls-3{fill:#97b4f8;}.cls-4{stroke:#819fd9;}.cls-5{fill:#3076ed;}.cls-6{fill:#80b3fd;}.cls-7{fill:#3071ed;}.cls-8{fill:#89b3fd;}.cls-9{fill:#6796ff;}.cls-10{fill:#fff;}.cls-11{fill:#ff876d;}.cls-12{fill:#ffdebb;}.cls-13{fill:#41305d;}.cls-14{fill:#fec180;}.cls-15{fill:#fea977;}.cls-16{fill:#fddebc;}.cls-17{fill:#e4b385;}.cls-18{fill:#12125a;}.cls-19{stroke:#c6a88f;}.cls-20{fill:#fefffe;}.cls-21{fill:#e1ae8a;}.cls-22{stroke:#b79076;}.cls-23{fill:#e6b489;}.cls-24{stroke:#d7a57f;}.cls-25{fill:#fedebc;}.cls-26{fill:#e5b489;}.cls-27{fill:#2b1851;}.cls-28{fill:#171968;}.cls-29{stroke:#deb28f;}.cls-30{fill:#fdfefe;}.cls-31{fill:#ffc082;}.cls-32{fill:#ffa976;}.cls-33{fill:#fedfbd;}.cls-34{fill:#e7b388;}.cls-35{fill:#e4b388;}.cls-36{stroke:#d1a47d;}.cls-37{fill:#e7b387;}.cls-38{fill:#181e5b;}.cls-39{stroke:#dbb38f;}.cls-40{fill:#d7e1fc;}.cls-41{stroke:#aacff4;}.cls-42{fill:#6ba3f9;}.cls-43{fill:#1f69f2;}.cls-44{fill:#d8e2fd;}.cls-45{stroke:#accff1;}.cls-46{stroke:#82a1db;}.cls-47{fill:#bdd4fd;}.cls-48{stroke:#7db3f6;}.cls-49{fill:#86b1f9;}.cls-50{fill:#3174f1;}.cls-51{fill:#82b1fa;}.cls-52{fill:#2f73ee;}.cls-53{fill:#2321b0;}.cls-54{fill:#ffb078;}.cls-55{fill:#ff8051;}</style></defs><g id="Layer_2" data-name="Layer 2"><g id="Макет_сайти" data-name="Макет сайти"><g id="Трава2"><ellipse class="cls-1" cx="659.81" cy="419.85" rx="37.86" ry="12.79" transform="translate(-70.99 141.36) rotate(-11.61)"/><line class="cls-2" x1="684.15" y1="415" x2="635.48" y2="431.71"/><path class="cls-3" d="M701.09,330.72c-.3.52-.61,1-.92,1.55q-2.76.44-5.62,1a254.08,254.08,0,0,0-23.73,11c-42.94,22.6-72.32,52.95-70.19,71.18-8.57,1.37-15.67.07-20.44-4.31-4.2-3.86-6.19-9.72-6.17-17,0-20.34,15.77-51.64,42.24-80.5,35.91-39.16,78-59,94-44.36C721.37,279.47,716.93,303.72,701.09,330.72Z"/><line class="cls-4" x1="679.65" y1="295.58" x2="623.66" y2="377.31"/><path class="cls-1" d="M671.5,404.74c-26,9.85-50.69,15.14-69.28,15.65l-.06-.12a13.63,13.63,0,0,1-1.48-4.85c-2.13-18.23,27.25-48.58,70.19-71.18a254.08,254.08,0,0,1,23.73-11q2.86-.53,5.62-1c26.56-4.09,46.23-1.22,50.13,9.05C756.48,357.5,721.18,385.89,671.5,404.74Z"/><path class="cls-5" d="M618.57,438.35s18.21-52.29,49.28-69.65,40.72-27,91.5-27c40.5,11.36,9,16.08-7.5,13.5C732,352.12,675.78,364.63,650.5,403S637,444.78,637,444.78Z"/><path class="cls-6" d="M751.85,355.2c11.26,1.76,29.51.12,27.08-4.71a100.77,100.77,0,0,0-13.85-4.75c-50.78,0-60.42,9.65-91.5,27C646,388.18,628.49,431.23,625,440.58l12,4.18c-.74-.27-10.85-4.76,13.55-41.77C675.78,364.63,732,352.12,751.85,355.2Z"/><path class="cls-6" d="M637,444.76l0,0Z"/><path class="cls-7" d="M603.54,438.93s-15.72-20.28,12.28-50c0,0,48.87-46.85,51.72-53.5,3.83-8.94,16.26-27.87,17.71-32.21,1-2.83,18-20,6.29,8.86s-40,67.62-48.86,72.57C634,389.5,613,419.79,629.25,442.08Z"/><path class="cls-8" d="M691.54,312.08c2.8-6.91,4-11.17,4.08-13.63-1.93,1.09-5.11,6-5.59,7.45-1.45,4.34-11.84,23.44-15.68,32.39-2.85,6.65-51.71,53.5-51.71,53.5-22.6,24-16.72,41.83-13.61,47.81l20.22,2.48C613,419.79,634,389.5,642.68,384.65,651.52,379.7,679.82,340.93,691.54,312.08Z"/></g><g id="сообщения"><path class="cls-9" d="M329.44,66.4H252.29c-3.22,0-17,10.38-19.14,8.29s7.14-16.91,7.14-20.29V27.83a12,12,0,0,1,12-12h77.15a12,12,0,0,1,12,12V54.4A12,12,0,0,1,329.44,66.4Z"/><path class="cls-9" d="M544.11,59.82H452.85c-3.81,0-20.08,12.28-22.64,9.8s8.45-20,8.45-24V14.19A14.24,14.24,0,0,1,452.85,0h91.26A14.24,14.24,0,0,1,558.3,14.19V45.63A14.24,14.24,0,0,1,544.11,59.82Z"/><path class="cls-9" d="M452.27,152.88l64.48.56c2.7,0,14.12,8.8,15.94,7.07s-5.84-14.19-5.82-17l.19-22.21a10.06,10.06,0,0,0-9.94-10.12l-64.48-.56a10.06,10.06,0,0,0-10.12,10l-.19,22.21A10,10,0,0,0,452.27,152.88Z"/><rect class="cls-10" x="256.58" y="27.4" width="70.14" height="4" rx="2"/><rect class="cls-10" x="256.58" y="37.9" width="70.14" height="4" rx="2"/><rect class="cls-10" x="256.58" y="48.05" width="70.14" height="4" rx="2"/><rect class="cls-10" x="456.15" y="13.83" width="87.86" height="6.57" rx="3.29"/><rect class="cls-10" x="456.15" y="26.4" width="87.86" height="6.57" rx="3.29"/><rect class="cls-10" x="456.15" y="39.4" width="87.86" height="6.57" rx="3.29"/><rect class="cls-10" x="457.86" y="120.12" width="53.07" height="4" rx="2"/><rect class="cls-10" x="457.86" y="129.23" width="53.07" height="4" rx="2"/><rect class="cls-10" x="458.4" y="138.23" width="53.07" height="4" rx="2"/></g><g id="Девочка"><path class="cls-11" d="M274.15,193.59l21,75,3.28-3.2,13,20.43-14.16,10.91s-20.56,14.38-28.56-9.91l-24.86-40.57Z"/><path class="cls-12" d="M120.47,134.2s19.61-9.72,15.32-28.15l-7.35,7.71s-9.36-16.61-8-29.14l-2.68,9-4.71-11.89V95.34L105.26,83l4.28,14.79-6.32-6.32s9.64,34,2.89,40.92l4.08,7.08Z"/><path class="cls-11" d="M161.89,186.94l-40.6,12V133.83l-8.85,5-6-7-12.29,74.8s-6,24.29,18.29,18.86l53.14-7.15Z"/><polygon class="cls-13" points="255.01 314.51 176.32 314.3 152.72 433.4 280.86 433.4 255.01 314.51"/><path class="cls-14" d="M173,235.56l0,.33-.72.3Z"/><path class="cls-14" d="M273.6,192.77,255,314.51a85.87,85.87,0,0,1-78.69-.21L158.69,188a135.82,135.82,0,0,1,52.43-10.21C234.46,177.77,256,183.33,273.6,192.77Z"/><path class="cls-14" d="M173,235.89l-.72.3.68-.63Z"/><path class="cls-15" d="M198.68,322.23a85.88,85.88,0,0,0,13.23,1.62l-29.4-143.19q-6.28,1.31-12.25,3.14Z"/><path class="cls-15" d="M222,323.73a86.82,86.82,0,0,0,13.42-2l30.26-132.77a122.51,122.51,0,0,0-11.92-4.56Z"/><path class="cls-12" d="M240.85,180.85a143.31,143.31,0,0,0-54.51-.89c4.54,17.31,15.09,29.44,27.38,29.44C225.8,209.4,236.19,197.68,240.85,180.85Z"/><rect class="cls-16" x="200.72" y="158.76" width="25.86" height="23.21"/><path class="cls-17" d="M200.72,159v11.9a47.71,47.71,0,0,0,14.93,2.16A52.84,52.84,0,0,0,226.58,172V158.76H201.41Z"/><path class="cls-12" d="M243.72,128.81c0,22.34-12.73,40.46-28.43,40.46-9.81,0-18.46-7.08-23.57-17.84V106.18c5.11-10.76,13.76-17.84,23.57-17.84C231,88.34,243.72,106.46,243.72,128.81Z"/><ellipse class="cls-18" cx="204.9" cy="125.14" rx="2.46" ry="3.67"/><ellipse class="cls-18" cx="230.08" cy="125.14" rx="2.46" ry="3.67"/><path class="cls-18" d="M197.48,118.63l13.42.24s0-1.58,0-2.68C201.42,115.71,197.48,118.63,197.48,118.63Z"/><path class="cls-18" d="M237.66,119.18l-13.42-.24s0-1.58.09-2.68C233.83,116.12,237.66,119.18,237.66,119.18Z"/><path class="cls-19" d="M216.9,125.14s3,11.41,5.46,12.37c0,0-4.39,1-6.21-.43"/><line class="cls-19" x1="212.72" y1="156.05" x2="221.61" y2="156.05"/><path class="cls-20" d="M206.51,143.83a11.56,11.56,0,0,0,22.49,0Z"/><path class="cls-13" d="M253.16,118.87c0,17.83-14.5,33.93-14.93,33.84,3.53-6,4.13-11,4.92-29.66.1-2.39-.92-5.89-1.15-8.13-9.12-1.89-14.79-19-14.64-19.79-.83,1-10.67,10.36-12.23,11.54l-.5.38c-.8.6-1.62,1.19-2.46,1.78l-1.35.92c-6.59,4.43-12.09,7.45-17.72,9.12-.56,3.46-.38,7.56-.38,11.46,0,1.89-1.83,19.09.52,23.84a17.56,17.56,0,0,1-3.34-.58C179.39,151,171.58,141,171.58,129c0-1.82,1-10.33,1-12.94,0-7.64.5-14.78,3.11-20.84a22.72,22.72,0,1,1,39.67-20.12h.78a34.93,34.93,0,0,1,16.56,4.12,34.29,34.29,0,0,1,4.74,3A35.35,35.35,0,0,1,244,88.69C249.36,93.31,253.16,105.08,253.16,118.87Z"/><ellipse class="cls-21" cx="184.27" cy="131.49" rx="5.95" ry="10.5"/><path class="cls-22" d="M181.55,127.2s7,2.89,5.14,8.57"/><path class="cls-21" d="M247.6,120c-.81-.08-1.66.95-2.37,2.67v16.81a1.14,1.14,0,0,0,.39.14c1.62.16,3.37-4.1,3.92-9.51S249.21,120.18,247.6,120Z"/><path class="cls-22" d="M248.28,126c.16.37-1.93,2.62-2.52,4.87"/></g><g id="пацан1"><path class="cls-12" d="M303.29,253.05l16,23.42L297.72,380.4s1.32,30.86-8.57,30.86l-1.43-16.14s-6.68,8.28-5.53,24.28c0,0-16.61-20.51,2.1-40.57C284.29,378.83,286.25,270.8,303.29,253.05Z"/><path class="cls-23" d="M357.19,120.31s-10.18-16.24-9.65,2.79l.29,4.54a3.78,3.78,0,0,0,1.08,2.41l7.63,7.73Z"/><polyline class="cls-24" points="350.65 119.62 352.9 122.35 352.9 127.87"/><path class="cls-23" d="M412.68,120s7.12-15,9.37-.54-9.7,15.8-9.7,15.8Z"/><path class="cls-24" d="M420.77,119.67s-4.17.91-4.92,9.11"/><path class="cls-12" d="M447,277.39l14.2,36.37s5.36,19.29,21.86,8.14L509.86,311l9.86-25.12-42,14-8.78-32.57Z"/><path d="M377.89,408.84h-.14l.14,0v0Z"/><path d="M352.69,404.64a63,63,0,0,0,23.3,4.23l1.76,0-25.06-4.21Z"/><polygon class="cls-13" points="440.04 440.59 325.18 440.59 328.18 393.45 440.04 393.45 440.04 440.59"/><rect class="cls-25" x="371.28" y="149.25" width="26.57" height="23.71"/><path class="cls-26" d="M397.85,154.09v5.45a20.73,20.73,0,0,1-12.36,3.84c-5.85,0-11-2.16-14.21-5.47V155a13.73,13.73,0,0,1,4.57-4.72h18A13.79,13.79,0,0,1,397.85,154.09Z"/><rect class="cls-12" x="354.64" y="75.09" width="59.57" height="82.72" rx="29.79"/><path class="cls-13" d="M420.43,99.47a13.92,13.92,0,0,1-1.26,5.87,10,10,0,0,1-4.52,4.9,7.32,7.32,0,0,1-6,.31,23.33,23.33,0,0,1-1.33-7.9,22.82,22.82,0,0,1,1.79-9.05c-1.92.29-3.92.52-6,.69-3,.26-6.07.39-9.25.39a99.39,99.39,0,0,1-21.42-2.21,65.85,65.85,0,0,1-6.58-1.85,22.3,22.3,0,0,1,.1,5.61c-.82,7.58-5.32,13.66-10.95,15.69-.31.11-.62.2-.93.28-.14,0-.28.08-.42.12h0a14.44,14.44,0,0,1-8.5-13.17c0-6.63,11.23-13.34,11.61-13.05.24-.43.48-.85.74-1.26a31.31,31.31,0,0,1,3.34-4.51,33.32,33.32,0,0,1,54.55,6.39C416.13,88,420.43,96.51,420.43,99.47Z"/><rect class="cls-27" x="362.29" y="107.25" width="16.86" height="2.71" transform="matrix(0.99, -0.14, 0.14, 0.99, -11.43, 52.11)"/><rect class="cls-27" x="390.23" y="106.74" width="16.86" height="2.71" transform="translate(11.78 -36.6) rotate(5.34)"/><ellipse class="cls-28" cx="371.53" cy="118.33" rx="2.52" ry="3.86"/><ellipse class="cls-28" cx="396.82" cy="118.76" rx="2.52" ry="3.86"/><polyline class="cls-29" points="386.89 117.72 386.89 132.61 381.64 132.61"/><path class="cls-30" d="M375.38,140.65a4.56,4.56,0,0,0-.06.75c0,4,4.37,7.17,9.75,7.17s9.75-3.21,9.75-7.17a6,6,0,0,0-.05-.75Z"/><path class="cls-31" d="M480,245.78c-8.64-40.07-37.88-77.36-81.73-83.31-1.37,5.78-7.17,10.12-14.12,10.12-6.78,0-12.44-4.12-14-9.67-41.31,6.61-73.16,38.71-75.82,78.14l25.93,36,7.45-14.73-1.29,23.28-.8,14.58-.54,9.73-.65,11.83-4.29,77.69L353.69,405l25.06,4.21h.14a61,61,0,0,0,23.37-5h0l45.33-9.95v-112L473.15,273l12.55-4.53Z"/><path class="cls-32" d="M485.7,268.46,473.15,273l-25.55,9.23V393.85l-45.33,9.95h0a59.3,59.3,0,0,1-19.7,4.85c10.72-9.55,21.13-62.45,24.25-126.68,2.61-53.53-.64-99.34-7.41-119.34,43.2,6.44,72.06,43,80.63,82.74Z"/><path class="cls-11" d="M485.7,268.46l-13.34,4.82-24.76,8.94-.28-1.91c-1.05-11.69-3.61-20-6.27-33.24-7.39-36.73-19.16-67.46-30.23-81.95,36.93,10.5,61.35,43.82,69.07,79.61C479.89,244.74,485.7,268.46,485.7,268.46Z"/><path class="cls-32" d="M377.65,171.21c-15.87,5-34.2,19.52-50,41.1-11.19,15.25-18.79,31.12-22.27,45l-12-16.64c2.7-40.07,35.54-72.59,77.82-78.47a1,1,0,0,0,0,.17A9.38,9.38,0,0,0,377.65,171.21Z"/></g><g id="пацпн2"><path class="cls-11" d="M526.13,275.8s-20.58,5-37.71,52c0,0-4.91,26.16-29.66,31.73s-11.16,2.61-11.16,2.61V384.6L503,371Z"/><path class="cls-31" d="M488.42,420.38l19.07-118.93c4.85-25.95,27.86-43.5,55.3-39.58l14.9,2.78c25.95,4.85,41.45,34.66,38.37,56l-10.55,116C578.85,439.71,490.35,445.88,488.42,420.38Z"/><path class="cls-32" d="M503.27,327.82l-5.94,37c31.68,14.85,93.49,9.84,114,7.65L614.48,338C582.57,350.43,522.68,333.82,503.27,327.82Z"/><path class="cls-11" d="M599,275.8l-48.52,66.89S538.79,366.05,495.72,380l-36.86,12.41s-2.14,21.9,12.86,23.57L524,398.83s28.28-10.28,43.71-30.85c11-14.66,35.51-40.41,48.7-54C616.09,300.78,609.76,285.88,599,275.8Z"/><path class="cls-33" d="M573.94,254V264l-.9,1.24c-1.48,4.41-6.38,7.65-12.21,7.65s-10.72-3.24-12.21-7.65l-1.23-3.27.19-7.92Z"/><path class="cls-34" d="M573.94,252.52v5.91h0a20.89,20.89,0,0,1-13.49,4.51A21.3,21.3,0,0,1,547.7,259l-.12-.08v-6.43Z"/><path class="cls-35" d="M532.15,220.75s-8.86-16.5-9.86-2c0,0-2.14,16.07,12.22,17.5Z"/><path class="cls-36" d="M526.12,219.18s3.79,1.64,3,8.29"/><ellipse class="cls-37" cx="589.29" cy="219.85" rx="7.93" ry="13.91"/><ellipse class="cls-12" cx="559.44" cy="218.19" rx="29.57" ry="39.07"/><path class="cls-13" d="M600.94,200c0,8.61-2.87,16.26-7.3,21H584.3a36.52,36.52,0,0,0,.73-7.36c0-11-4.68-20.42-11.31-24.27a45.9,45.9,0,0,1-8.24,4.27,54.28,54.28,0,0,1-7,2.25,52,52,0,0,1-5.32,1,42.85,42.85,0,0,1-17.06-.66l-.13,0c-.25,1.76-.63-.17,0,0,0,.8.08,1.62.08,2.45a33.29,33.29,0,0,1-4.8,17.78q-.72-1.44-1.35-3c-.59-1.42-1.12-2.88-1.58-4.38a47.89,47.89,0,0,1-2-18.26,39.86,39.86,0,0,1,3.1-12.47c3.38-7.76,9.24-13.67,17-16.05,11.44-3.53,23.9,1.63,32.56,12.15a12.69,12.69,0,0,1,4-.66,11.49,11.49,0,0,1,1.95.16C593.91,175.38,600.94,186.48,600.94,200Z"/><rect class="cls-13" x="538.15" y="206.23" width="14.29" height="4.04"/><rect class="cls-13" x="564.44" y="205.94" width="14.29" height="4.04"/><ellipse class="cls-38" cx="546.01" cy="218.73" rx="2.36" ry="3.61"/><ellipse class="cls-38" cx="570.94" cy="218.73" rx="2.36" ry="3.61"/><polyline class="cls-39" points="556.43 216.88 556.43 232.16 563.1 231.31"/><path class="cls-10" d="M569.51,236.69c0,4.9-4.25,8.86-9.5,8.86s-9.5-4-9.5-8.86c0-.12,0-.23,0-.35h19C569.51,236.46,569.51,236.57,569.51,236.69Z"/></g><g id="трава"><path class="cls-40" d="M136.61,426.84c-8.87,8.69-26.89,11.83-45.77,6.9-12.57-3.29-23.06-9.5-29.7-16.8a64.84,64.84,0,0,1-6.63-10.85c-2.92-6.25-3.45-11.39-1-14.64a7.94,7.94,0,0,1,3.77-2.69c11.24-4.18,38.47,6.69,65.67,27C127.8,419.38,132.38,423.11,136.61,426.84Z"/><line class="cls-41" x1="71.23" y1="401.58" x2="133.38" y2="436.08"/><path class="cls-42" d="M132.59,436.31l-.86-5.15s-58.14-5.35-75.1-40.5c-4.47-9.26-13.94-16.93-2.85,4.82s57.24,47.75,67.38,47S132.59,436.31,132.59,436.31Z"/><path class="cls-43" d="M56.63,390.66c-1.92-4-4.75-7.64-6.49-8.83.26,1.81,1.62,5.41,4.75,11.54,10.27,20.15,53,44.23,62.4,43.56s10.58-5.75,10.58-5.75l-.08-.51C114.43,428.73,70.91,420.27,56.63,390.66Z"/><path class="cls-44" d="M131.2,275.93c-8.67,3.28-15.77,17.45-20.13,38.05-12.16-20.2-24.74-35-35.15-41.21,0-20.23,4.5-34.16,13.33-36.88C100.74,232.35,116.77,248.65,131.2,275.93Z"/><line class="cls-45" x1="98.06" y1="269.1" x2="110.78" y2="311.41"/><path class="cls-3" d="M150.47,433.22c-.81-20.32-8.09-49.29-21-79.8a321.44,321.44,0,0,0-20.17-39.94c4.36-20.6,11.46-34.77,20.13-38.05a11,11,0,0,1,3.38-.72c18.19-.89,35.19,44.86,38,102.18S151.06,448.09,150.47,433.22Z"/><path class="cls-46" d="M135.26,305.57s17.14,101,29.57,102.31"/><path class="cls-47" d="M149.86,439.15c-10.54-1.43-25.83-12.22-42.18-29.3a309.54,309.54,0,0,1-32.84-41.37c-4.67-7-9-13.92-12.85-20.73-13.56-41.46-15-75.39-2-80.89.24-.1.48-.19.73-.27,3.65-1.21,8-.18,12.93,2.73,10.3,6.15,22.74,20.71,34.78,40.6l.37.61a321.44,321.44,0,0,1,20.17,39.94c12.93,30.51,20.21,59.48,21,79.8A78.41,78.41,0,0,1,149.86,439.15Z"/><line class="cls-48" x1="74.47" y1="301.06" x2="104.42" y2="360.73"/><path class="cls-49" d="M143,436.29s17.14-15.75-16.29-49.5c-22.68-22.9-38.93-50.85-43.5-59.14S71,300.22,73.39,319.51c2.75,22.52,49.5,74.5,52.07,77.35s11.4,13.61,4.54,41Z"/><path class="cls-50" d="M153.74,436.86s10.86-23.14-14.57-46.57-43.43-43.43-48-51.71S72.69,302.74,78,321.15c6.32,21.8,55.43,75.71,58,78.57s13.86,12,7,39.43Z"/><path class="cls-51" d="M127.51,439.06s-3.72-42-53.15-63.71c0,0-27.42-14.29-57.71-11.72s-10-7.71-10-7.71,31.14-9.72,60.57,4.85,44.86,17.15,63.43,55.43-6,30.86-6,30.86Z"/><path class="cls-50" d="M67.22,360.77c-29.43-14.57-60.57-4.85-60.57-4.85s-1.36.69-2.85,1.66c-.68,2.05,2.45,3.64,16.56,2.44,30.29-2.57,57.72,11.72,57.72,11.72,49.43,21.71,53.14,63.71,53.14,63.71l-2.86,8s4.62,1.4,8.34-.14c1.88-4.17,1.2-12.15-6-27.11C112.08,377.92,96.65,375.35,67.22,360.77Z"/></g><g id="ноут"><polygon class="cls-9" points="381.33 437.69 355.61 437.69 322.61 323.26 348.75 323.26 381.33 437.69"/><polygon class="cls-52" points="437.48 437.69 381.33 437.69 348.75 323.26 404.91 323.26 437.48 437.69"/><polygon class="cls-53" points="437.48 437.69 503.68 437.69 503.68 418.26 440.12 418.54 412.93 327.12 404.91 323.26 437.48 437.69"/></g><g id="стол"><rect class="cls-54" x="78.32" y="433.75" width="594" height="28.29" rx="14.14"/><path class="cls-55" d="M78.61,445.31a14.15,14.15,0,0,0,13.86,17H658.18a14.15,14.15,0,0,0,13.85-17Z"/></g></g></g></svg>