<svg xmlns="http://www.w3.org/2000/svg" xmlns:xlink="http://www.w3.org/1999/xlink" viewBox="0 0 91.71 91.71"><defs><style>.cls-1{fill:url(#linear-gradient);}.cls-2{fill:#fff;}</style><linearGradient id="linear-gradient" y1="45.86" x2="91.71" y2="45.86" gradientUnits="userSpaceOnUse"><stop offset="0" stop-color="#fe9e6e"/><stop offset="1" stop-color="#f27a5a"/></linearGradient></defs><g id="Layer_2" data-name="Layer 2"><g id="Макет_сайти" data-name="Макет сайти"><g id="калькулятор"><circle class="cls-1" cx="45.86" cy="45.86" r="45.86"/><path class="cls-2" d="M59.82,19.07a6.13,6.13,0,0,1,6.11,6.11V66.54a6.13,6.13,0,0,1-6.11,6.1H28.11A6.13,6.13,0,0,1,22,66.54V25.18a6.13,6.13,0,0,1,6.11-6.11H59.82m0-1H28.11A7.12,7.12,0,0,0,21,25.18V66.54a7.12,7.12,0,0,0,7.11,7.1H59.82a7.12,7.12,0,0,0,7.11-7.1V25.18a7.12,7.12,0,0,0-7.11-7.11Z"/><path class="cls-2" d="M60.07,23.21a2,2,0,0,1,2,2v5.72a2,2,0,0,1-2,2H28.36a2,2,0,0,1-2-2V25.21a2,2,0,0,1,2-2H60.07m0-1H28.36a3,3,0,0,0-3,3v5.72a3,3,0,0,0,3,3H60.07a3,3,0,0,0,3-3V25.21a3,3,0,0,0-3-3Z"/><path class="cls-2" d="M33.23,39.64a1.57,1.57,0,0,1,1.57,1.57V44.5a1.57,1.57,0,0,1-1.57,1.57H28.55A1.58,1.58,0,0,1,27,44.5V41.21a1.58,1.58,0,0,1,1.57-1.57h4.68m0-1H28.55A2.58,2.58,0,0,0,26,41.21V44.5a2.58,2.58,0,0,0,2.57,2.57h4.68A2.57,2.57,0,0,0,35.8,44.5V41.21a2.58,2.58,0,0,0-2.57-2.57Z"/><path class="cls-2" d="M33.23,50.29a1.57,1.57,0,0,1,1.57,1.57v3.28a1.57,1.57,0,0,1-1.57,1.57H28.55A1.57,1.57,0,0,1,27,55.14V51.86a1.57,1.57,0,0,1,1.57-1.57h4.68m0-1H28.55A2.58,2.58,0,0,0,26,51.86v3.28a2.58,2.58,0,0,0,2.57,2.57h4.68a2.57,2.57,0,0,0,2.57-2.57V51.86a2.57,2.57,0,0,0-2.57-2.57Z"/><path class="cls-2" d="M33.23,61.36a1.57,1.57,0,0,1,1.57,1.57v3.28a1.57,1.57,0,0,1-1.57,1.58H28.55A1.58,1.58,0,0,1,27,66.21V62.93a1.57,1.57,0,0,1,1.57-1.57h4.68m0-1H28.55A2.58,2.58,0,0,0,26,62.93v3.28a2.58,2.58,0,0,0,2.57,2.58h4.68a2.58,2.58,0,0,0,2.57-2.58V62.93a2.57,2.57,0,0,0-2.57-2.57Z"/><path class="cls-2" d="M46.3,39.64a1.58,1.58,0,0,1,1.58,1.57V44.5a1.58,1.58,0,0,1-1.58,1.57H41.63a1.58,1.58,0,0,1-1.58-1.57V41.21a1.58,1.58,0,0,1,1.58-1.57H46.3m0-1H41.63a2.58,2.58,0,0,0-2.58,2.57V44.5a2.58,2.58,0,0,0,2.58,2.57H46.3a2.58,2.58,0,0,0,2.58-2.57V41.21a2.58,2.58,0,0,0-2.58-2.57Z"/><path class="cls-2" d="M46.3,50a1.58,1.58,0,0,1,1.58,1.57v3.29a1.58,1.58,0,0,1-1.58,1.57H41.63a1.58,1.58,0,0,1-1.58-1.57V51.57A1.58,1.58,0,0,1,41.63,50H46.3m0-1H41.63a2.58,2.58,0,0,0-2.58,2.57v3.29a2.58,2.58,0,0,0,2.58,2.57H46.3a2.58,2.58,0,0,0,2.58-2.57V51.57A2.58,2.58,0,0,0,46.3,49Z"/><path class="cls-2" d="M46.55,61.36a1.57,1.57,0,0,1,1.58,1.57v3.28a1.58,1.58,0,0,1-1.58,1.58H41.88a1.58,1.58,0,0,1-1.58-1.58V62.93a1.57,1.57,0,0,1,1.58-1.57h4.67m0-1H41.88a2.58,2.58,0,0,0-2.58,2.57v3.28a2.59,2.59,0,0,0,2.58,2.58h4.67a2.59,2.59,0,0,0,2.58-2.58V62.93a2.58,2.58,0,0,0-2.58-2.57Z"/><path class="cls-2" d="M59.45,39.64A1.58,1.58,0,0,1,61,41.21V44.5a1.58,1.58,0,0,1-1.57,1.57H54.77A1.57,1.57,0,0,1,53.2,44.5V41.21a1.57,1.57,0,0,1,1.57-1.57h4.68m0-1H54.77a2.58,2.58,0,0,0-2.57,2.57V44.5a2.57,2.57,0,0,0,2.57,2.57h4.68A2.58,2.58,0,0,0,62,44.5V41.21a2.58,2.58,0,0,0-2.57-2.57Z"/><path class="cls-2" d="M59.45,50A1.58,1.58,0,0,1,61,51.57V66.64a1.57,1.57,0,0,1-1.57,1.57H54.77a1.57,1.57,0,0,1-1.57-1.57V51.57A1.57,1.57,0,0,1,54.77,50h4.68m0-1H54.77a2.57,2.57,0,0,0-2.57,2.57V66.64a2.57,2.57,0,0,0,2.57,2.57h4.68A2.58,2.58,0,0,0,62,66.64V51.57A2.58,2.58,0,0,0,59.45,49Z"/><path class="cls-2" d="M57.14,26.09A1.94,1.94,0,0,1,59.07,28v.86a1.93,1.93,0,0,1-3.86,0V28a1.94,1.94,0,0,1,1.93-1.93m0-1A2.93,2.93,0,0,0,54.21,28v.86a2.93,2.93,0,0,0,5.86,0V28a2.93,2.93,0,0,0-2.93-2.93Z"/></g></g></g></svg>