<svg xmlns="http://www.w3.org/2000/svg" xmlns:xlink="http://www.w3.org/1999/xlink" viewBox="0 0 92.71 92.71"><defs><style>.cls-1{stroke:#f97f5b;fill:url(#linear-gradient);}.cls-1,.cls-3{stroke-miterlimit:10;}.cls-2{fill:#fff;}.cls-3{fill:none;stroke:#fff;}</style><linearGradient id="linear-gradient" x1="0.5" y1="46.36" x2="92.21" y2="46.36" gradientUnits="userSpaceOnUse"><stop offset="0" stop-color="#fe9e6e"/><stop offset="1" stop-color="#f27a5a"/></linearGradient></defs><g id="Layer_2" data-name="Layer 2"><g id="Макет_сайти" data-name="Макет сайти"><g id="dtcs"><circle class="cls-1" cx="46.36" cy="46.36" r="45.86"/><path class="cls-2" d="M46.7,69.11c7.28,0,9.63,1.75,10.37,2.8a2.54,2.54,0,0,1,.51,1.52H35.82a2.59,2.59,0,0,1,.5-1.52c.75-1,3.09-2.8,10.38-2.8m0-1C32.61,68.11,35,74.43,35,74.43H58.43s2.36-6.32-11.73-6.32Z"/><path class="cls-2" d="M49,54.75V67.24H44V54.75h5m1-1H43V68.24h7V53.75Z"/><polyline class="cls-3" points="48.75 23.27 48.75 54.21 43.96 54.21 43.96 23.45"/><path class="cls-2" d="M46.36,18a2.94,2.94,0,1,1-2.94,2.94A2.94,2.94,0,0,1,46.36,18m0-1a3.94,3.94,0,1,0,3.93,3.94A3.95,3.95,0,0,0,46.36,17Z"/><path class="cls-3" d="M43.54,30.93l-17.47-.75s5.14-4.07,17.47-3.43"/><path class="cls-3" d="M48.75,30.74,66.22,30s-5.15-4.07-17.47-3.43"/><path class="cls-2" d="M37.1,57.49c-.9,1.6-3.26,4.24-9.14,4.65l-1.06,0c-5.28,0-7.32-3-8.06-4.68H37.1m1.48-1H17.47s1.18,6.68,9.43,6.68c.36,0,.74,0,1.13,0,9.27-.64,10.55-6.64,10.55-6.64Z"/><polyline class="cls-3" points="27.68 30.74 27.68 36.5 27.68 37.57 37.75 56 18.25 56 27.68 37.23"/><path class="cls-2" d="M74.45,57.49c-.9,1.6-3.26,4.24-9.14,4.65l-1.06,0c-5.28,0-7.32-3-8-4.68H74.45m1.49-1H54.83s1.18,6.68,9.42,6.68c.36,0,.74,0,1.13,0,9.27-.64,10.56-6.64,10.56-6.64Z"/><polyline class="cls-3" points="65.03 30.74 65.03 36.5 65.03 37.57 75.11 56 55.6 56 65.03 37.23"/></g></g></g></svg>