<svg xmlns="http://www.w3.org/2000/svg" xmlns:xlink="http://www.w3.org/1999/xlink" viewBox="0 0 92.71 92.71"><defs><style>.cls-1{stroke:#f97f5b;fill:url(#linear-gradient);}.cls-1,.cls-3,.cls-8{stroke-miterlimit:10;}.cls-2{fill:#fff;}.cls-3{stroke:#f9f9f9;fill:url(#linear-gradient-2);}.cls-4{fill:url(#linear-gradient-3);}.cls-5{fill:url(#linear-gradient-4);}.cls-6{fill:url(#linear-gradient-5);}.cls-7{fill:url(#linear-gradient-6);}.cls-8{stroke:#fff;fill:url(#linear-gradient-7);}</style><linearGradient id="linear-gradient" x1="0.5" y1="46.36" x2="92.21" y2="46.36" gradientUnits="userSpaceOnUse"><stop offset="0" stop-color="#fe9e6e"/><stop offset="1" stop-color="#f27a5a"/></linearGradient><linearGradient id="linear-gradient-2" x1="19.63" y1="50.8" x2="73.08" y2="50.8" xlink:href="#linear-gradient"/><linearGradient id="linear-gradient-3" x1="22.79" y1="56.83" x2="29.04" y2="56.83" xlink:href="#linear-gradient"/><linearGradient id="linear-gradient-4" x1="39.48" y1="67.13" x2="45.71" y2="67.13" xlink:href="#linear-gradient"/><linearGradient id="linear-gradient-5" x1="27.97" y1="59.76" x2="35.38" y2="59.76" xlink:href="#linear-gradient"/><linearGradient id="linear-gradient-6" x1="33.85" y1="62.78" x2="42.02" y2="62.78" xlink:href="#linear-gradient"/><linearGradient id="linear-gradient-7" x1="37.77" y1="42.96" x2="75.03" y2="42.96" xlink:href="#linear-gradient"/></defs><g id="Layer_2" data-name="Layer 2"><g id="Макет_сайти" data-name="Макет сайти"><g id="рукопожатие"><circle class="cls-1" cx="46.36" cy="46.36" r="45.86"/><path class="cls-2" d="M19.85,28.59,25.78,32,15.24,50.26,9.32,46.84,19.85,28.59m-.37-1.37L8,47.2l7.66,4.42,11.53-20-7.66-4.43Z"/><path class="cls-3" d="M19.63,52.14l27.11,17s6.54,5.33,7.71-2.05l-4.17-3.74S56.06,69.82,60,66.5s-5.36-7.93-5.36-7.93,8.57,7.36,11.46,4.21S60.45,54,60.45,54,68.17,61.89,72.13,58s-5.78-8-5.78-8L48.45,35.54s.86-7.5-7.71-4.08-10.93,1-10.93,1Z"/><path class="cls-4" d="M24.84,60a2,2,0,0,1-1.42-.52c-1-1-.76-3,.62-4.42A4.19,4.19,0,0,1,27,53.63a2,2,0,0,1,1.42.52c1,1,.76,3-.62,4.42A4.19,4.19,0,0,1,24.84,60Z"/><path class="cls-2" d="M27,54.13a1.61,1.61,0,0,1,1.08.38A1.76,1.76,0,0,1,28.51,56a4,4,0,0,1-1.08,2.2,3.72,3.72,0,0,1-2.59,1.29,1.59,1.59,0,0,1-1.08-.38c-.82-.76-.53-2.47.64-3.72A3.72,3.72,0,0,1,27,54.13m0-1a4.7,4.7,0,0,0-3.32,1.61c-1.57,1.68-1.83,4-.59,5.13a2.52,2.52,0,0,0,1.76.65,4.72,4.72,0,0,0,3.32-1.6c1.56-1.69,1.83-4,.59-5.14A2.52,2.52,0,0,0,27,53.13Z"/><path class="cls-5" d="M41.52,70.32a2,2,0,0,1-1.42-.51,2.25,2.25,0,0,1-.6-2,4.47,4.47,0,0,1,1.22-2.48,4.21,4.21,0,0,1,3-1.45,2,2,0,0,1,1.42.52,2.22,2.22,0,0,1,.6,2,4.47,4.47,0,0,1-1.22,2.48,4.22,4.22,0,0,1-2.95,1.44Z"/><path class="cls-2" d="M43.67,64.43a1.57,1.57,0,0,1,1.08.38,1.82,1.82,0,0,1,.45,1.53,4.09,4.09,0,0,1-1.09,2.2,3.74,3.74,0,0,1-2.59,1.28,1.56,1.56,0,0,1-1.08-.38A1.76,1.76,0,0,1,40,67.92a4,4,0,0,1,1.09-2.2,3.74,3.74,0,0,1,2.58-1.29m0-1A4.76,4.76,0,0,0,40.35,65c-1.56,1.68-1.83,4-.59,5.13a2.52,2.52,0,0,0,1.76.65,4.72,4.72,0,0,0,3.32-1.6c1.57-1.68,1.83-4,.59-5.14a2.52,2.52,0,0,0-1.76-.65Z"/><path class="cls-6" d="M30.3,63.55A2.33,2.33,0,0,1,28.68,63c-1.2-1.12-.84-3.48.81-5.25A5.13,5.13,0,0,1,33.05,56a2.33,2.33,0,0,1,1.62.58,2.57,2.57,0,0,1,.67,2.3,5.46,5.46,0,0,1-1.48,2.95,5.13,5.13,0,0,1-3.56,1.76Z"/><path class="cls-2" d="M33.05,56.46a1.88,1.88,0,0,1,1.28.45,2.16,2.16,0,0,1,.52,1.86,5.12,5.12,0,0,1-1.35,2.68,4.7,4.7,0,0,1-3.2,1.6A1.88,1.88,0,0,1,29,62.6c-1-.91-.6-3,.84-4.54a4.66,4.66,0,0,1,3.19-1.6m0-1a5.58,5.58,0,0,0-3.92,1.92c-1.85,2-2.2,4.64-.79,6a2.83,2.83,0,0,0,2,.71,5.6,5.6,0,0,0,3.93-1.92c1.84-2,2.19-4.64.78-6a2.8,2.8,0,0,0-2-.72Z"/><path class="cls-7" d="M35.92,67a2,2,0,0,1-1.45-.51,2.53,2.53,0,0,1-.54-2.41,7.07,7.07,0,0,1,1.82-3.34A6.27,6.27,0,0,1,40,58.56a2.09,2.09,0,0,1,1.45.5,2.55,2.55,0,0,1,.54,2.42,7.11,7.11,0,0,1-1.82,3.34A6.27,6.27,0,0,1,35.92,67Z"/><path class="cls-2" d="M40,59.06a1.57,1.57,0,0,1,1.11.37,2.14,2.14,0,0,1,.39,2,6.62,6.62,0,0,1-1.7,3.1,5.76,5.76,0,0,1-3.83,2,1.55,1.55,0,0,1-1.11-.37,2.14,2.14,0,0,1-.39-2,6.62,6.62,0,0,1,1.7-3.1,5.74,5.74,0,0,1,3.83-2m0-1a6.73,6.73,0,0,0-4.57,2.35c-2.1,2.26-2.66,5.15-1.25,6.46a2.52,2.52,0,0,0,1.79.64,6.69,6.69,0,0,0,4.56-2.35c2.11-2.26,2.67-5.15,1.26-6.46A2.54,2.54,0,0,0,40,58.06Z"/><path class="cls-2" d="M76.75,28.69,85,46.59l-6.94,3.2-8.25-17.9,6.94-3.2m.48-1.33-8.75,4,9.09,19.71,8.75-4L77.23,27.36Z"/><path class="cls-8" d="M65.92,32.54,75,51.5l-4.56,1.93S56.82,44.92,50.49,41c-1.87-1.16-3.78,2-7,5.36-1.24,1.31-7.93,4.6-5-5.15S51,32.54,51,32.54,64.63,34.57,65.92,32.54Z"/></g></g></g></svg>