<svg xmlns="http://www.w3.org/2000/svg" xmlns:xlink="http://www.w3.org/1999/xlink" viewBox="0 0 92.71 92.71"><defs><style>.cls-1{stroke:#f97f5b;fill:url(#linear-gradient);}.cls-1,.cls-3{stroke-miterlimit:10;}.cls-2{fill:#fff;}.cls-3,.cls-4{fill:none;stroke:#fff;}.cls-4{stroke-linecap:square;stroke-linejoin:round;}</style><linearGradient id="linear-gradient" x1="0.5" y1="46.36" x2="92.21" y2="46.36" gradientUnits="userSpaceOnUse"><stop offset="0" stop-color="#fe9e6e"/><stop offset="1" stop-color="#f27a5a"/></linearGradient></defs><g id="Layer_2" data-name="Layer 2"><g id="Макет_сайти" data-name="Макет сайти"><g id="контакты"><circle class="cls-1" cx="46.36" cy="46.36" r="45.86"/><path class="cls-2" d="M24,28.07a9.15,9.15,0,1,1,0,18.29,9.15,9.15,0,1,1,0-18.29m0-1A10.15,10.15,0,1,0,34.39,37.21,10.28,10.28,0,0,0,24,27.07Z"/><path class="cls-3" d="M23.79,40.66A10.22,10.22,0,0,0,17,43.27a9.53,9.53,0,0,0,13.86.2A10.19,10.19,0,0,0,23.79,40.66Z"/><circle class="cls-3" cx="23.5" cy="36.07" r="3.93"/><path class="cls-2" d="M46.36,14.48A10,10,0,0,1,56.5,24.36a10.14,10.14,0,0,1-20.28,0,10,10,0,0,1,10.14-9.88m0-1A11,11,0,0,0,35.22,24.36a11.14,11.14,0,0,0,22.28,0A11,11,0,0,0,46.36,13.48Z"/><path class="cls-3" d="M46.13,28.07a11,11,0,0,0-7.36,2.82,10.29,10.29,0,0,0,15,.22A11,11,0,0,0,46.13,28.07Z"/><circle class="cls-3" cx="45.82" cy="23.12" r="4.24"/><path class="cls-2" d="M68.71,28.07a9.15,9.15,0,1,1-9.39,9.14,9.27,9.27,0,0,1,9.39-9.14m0-1a10.15,10.15,0,1,0,10.4,10.14,10.28,10.28,0,0,0-10.4-10.14Z"/><path class="cls-3" d="M68.51,40.66a10.18,10.18,0,0,0-6.82,2.61,9.53,9.53,0,0,0,13.86.2A10.2,10.2,0,0,0,68.51,40.66Z"/><circle class="cls-3" cx="68.22" cy="36.07" r="3.93"/><path class="cls-3" d="M28.64,28.43a9.09,9.09,0,0,1,7.11-3.61"/><path class="cls-3" d="M64.29,28.62a9.07,9.07,0,0,0-6.92-4"/><rect class="cls-3" x="39.01" y="72.41" width="21.54" height="4.39"/><path class="cls-4" d="M41.39,72.36H57.6V69.21l3.93-3.14V50.57s.14-3.36-1.93-3.36-2.21,4.15-2.21,4.15.21-8.36-3.93-5.43l-.21,5.28s1.57-7.07-3.22-5.43l-1.28,5-.36-15.64s-2.5-4.57-4.22,0l.22,16.5s-2.22,13.36-3,2.5-9-7.28-8.79-6.14,4,4.86,3,10.78,4.29,7.72,4.65,8.5S41.39,72.36,41.39,72.36Z"/></g></g></g></svg>