<svg xmlns="http://www.w3.org/2000/svg" xmlns:xlink="http://www.w3.org/1999/xlink" viewBox="0 0 92.71 92.71"><defs><style>.cls-1{stroke:#f97f5b;fill:url(#linear-gradient);}.cls-1,.cls-3,.cls-4{stroke-miterlimit:10;}.cls-2{fill:#fff;}.cls-3{fill:none;}.cls-3,.cls-4{stroke:#fff;}</style><linearGradient id="linear-gradient" x1="0.5" y1="46.36" x2="92.21" y2="46.36" gradientUnits="userSpaceOnUse"><stop offset="0" stop-color="#fe9e6e"/><stop offset="1" stop-color="#f27a5a"/></linearGradient></defs><g id="Layer_2" data-name="Layer 2"><g id="Макет_сайти" data-name="Макет сайти"><g id="отчеты"><circle class="cls-1" cx="46.36" cy="46.36" r="45.86"/><path class="cls-2" d="M61,16.54V70.89H20.14V28.58l12.56.31,1,0,0-1,.19-11.36H61m1-1H32.94l-.21,12.35-13.59-.33V71.89H62V15.54Z"/><path class="cls-2" d="M61,16.54V70.89H20.14V28l6.71-5.87,6.46-5.6H61m1-1H32.94L26.2,21.38l-7.06,6.18V71.89H62V15.54Z"/><line class="cls-3" x1="39.82" y1="23.25" x2="53.11" y2="23.14"/><line class="cls-3" x1="29.11" y1="33" x2="52.68" y2="33"/><line class="cls-3" x1="28.79" y1="38.46" x2="52.36" y2="38.46"/><line class="cls-3" x1="29.54" y1="43.71" x2="53.11" y2="43.71"/><rect class="cls-3" x="50.32" y="48.43" width="2.79" height="15.54"/><rect class="cls-3" x="43.04" y="54.43" width="3.32" height="9.54"/><rect class="cls-3" x="35.86" y="52.07" width="3.54" height="11.89"/><rect class="cls-3" x="29.54" y="57.11" width="2.57" height="6.86"/><rect class="cls-3" x="65.96" y="29.68" width="6.21" height="25.71"/><rect class="cls-3" x="67.68" y="55.39" width="2.57" height="3.11"/><polygon class="cls-2" points="67.2 58.97 70.73 58.97 68.96 62.93 67.2 58.97"/><line class="cls-4" x1="66.29" y1="46.36" x2="71.89" y2="46.36"/><circle class="cls-3" cx="69.14" cy="26.93" r="2.18"/></g></g></g></svg>