<svg xmlns="http://www.w3.org/2000/svg" xmlns:xlink="http://www.w3.org/1999/xlink" viewBox="0 0 92.71 92.71"><defs><style>.cls-1{stroke:#f97f5b;fill:url(#linear-gradient);}.cls-1,.cls-3{stroke-miterlimit:10;}.cls-2,.cls-4{fill:#fff;}.cls-3{fill:none;stroke:#fff;}.cls-4{font-size:14px;font-family:MyriadPro-Bold, Myriad Pro;font-weight:700;}</style><linearGradient id="linear-gradient" x1="0.5" y1="46.36" x2="92.21" y2="46.36" gradientUnits="userSpaceOnUse"><stop offset="0" stop-color="#fe9e6e"/><stop offset="1" stop-color="#f27a5a"/></linearGradient></defs><g id="Layer_2" data-name="Layer 2"><g id="Макет_сайти" data-name="Макет сайти"><g id="доки"><circle class="cls-1" cx="46.36" cy="46.36" r="45.86"/><path class="cls-2" d="M65.71,27.05A7.72,7.72,0,1,1,58,34.77a7.72,7.72,0,0,1,7.71-7.72m0-1a8.72,8.72,0,1,0,8.72,8.72,8.72,8.72,0,0,0-8.72-8.72Z"/><path class="cls-3" d="M68.36,61.41l4.85,4.14s3.79,8.29-5.56,8.29h0l-37.13.32s6.29.82,4.36-12.75L40.36,66l4.43-4.57,4,3.71,4.14-3.71L57,65.12l3.79-3.71,4.14,3.71Z"/><line class="cls-3" x1="33.82" y1="23.27" x2="58.89" y2="23.27"/><line class="cls-3" x1="33.82" y1="29.37" x2="38.86" y2="29.27"/><line class="cls-3" x1="42.5" y1="28.95" x2="54.61" y2="29.16"/><line class="cls-3" x1="33.82" y1="34.77" x2="41.21" y2="34.77"/><line class="cls-3" x1="45.39" y1="34.77" x2="54.07" y2="34.77"/><line class="cls-3" x1="33.82" y1="41.16" x2="38.64" y2="40.95"/><line class="cls-3" x1="42.07" y1="41.05" x2="54.82" y2="41.05"/><line class="cls-3" x1="34.36" y1="46.73" x2="41.21" y2="46.52"/><line class="cls-3" x1="45.39" y1="46.41" x2="54.82" y2="46.41"/><line class="cls-3" x1="33.82" y1="52.3" x2="58.89" y2="52.3"/><line class="cls-3" x1="65.71" y1="42.85" x2="65.71" y2="64.25"/><path class="cls-3" d="M65.38,26.37V20.7S65,17,59.32,17.43l-36.11,0S19,17.16,18.82,20.8s0,14,0,14l3-3.57,4.72,3.57L27,68.7s-.77,5.81,4.71,5.31"/><path class="cls-3" d="M27,35.11V20.75a4.58,4.58,0,0,0-4.79-3.29"/><text class="cls-4" transform="translate(62.02 39.91)">$</text></g></g></g></svg>